<mxfile host="app.diagrams.net" modified="2023-06-07T03:27:04.469Z" agent="Mozilla/5.0 (Windows NT 10.0; Win64; x64) AppleWebKit/537.36 (KHTML, like Gecko) Chrome/114.0.0.0 Safari/537.36 Edg/114.0.1823.37" version="21.3.7" etag="i91Op1T1qf-tColE218G" type="github">
  <diagram name="Page-1" id="Pm0fC6svki0rrpizngi8">
    <mxGraphModel>
      <root>
        <mxCell id="0" />
        <mxCell id="1" parent="0" />
      </root>
    </mxGraphModel>
  </diagram>
</mxfile>
